# xmcd
#
# Track frame offsets: 
#        150
#        14956
#        31952
#        47693
#        63155
#        83073
#        98855
#        114770
#        130131
#        148182
#        163888
#        177665
#        191044
#
# Disc length: 2740 seconds
#
# Revision: 0
# Processed by: cddbd v1.5.2PL0 Copyright (c) Steve Scherf et al.
# Submitted via: ExactAudioCopy v0.99pb5
#
DISCID=b70ab20d
DTITLE=Roberto Ciotti - Troubles and Dreams
DYEAR=2010
DGENRE=Blues
TTITLE0=01 - Blues Writer
TTITLE1=02 - Black Angel
TTITLE2=03 - Stanotte Roma (Out of Sight)
TTITLE3=04 - Times I Live
TTITLE4=05 - Tender Touch
TTITLE5=06 - Hot Summer
TTITLE6=07 - I'm Fool an I'm Free
TTITLE7=08 - Guilty to Be Lonely
TTITLE8=09 - In My Pocket
TTITLE9=10 - Out of Sight
TTITLE10=11 - Rockin' Prophecy
TTITLE11=12 - No Justice
TTITLE12=13 - Mama
EXTD=
EXTT0=
EXTT1=
EXTT2=
EXTT3=
EXTT4=
EXTT5=
EXTT6=
EXTT7=
EXTT8=
EXTT9=
EXTT10=
EXTT11=
EXTT12=
PLAYORDER=
